<?xml version="1.0" standalone="no"?>
<!DOCTYPE svg PUBLIC "-//W3C//DTD SVG 20010904//EN"
 "http://www.w3.org/TR/2001/REC-SVG-20010904/DTD/svg10.dtd">
<svg version="1.0" xmlns="http://www.w3.org/2000/svg"
 width="107.000000pt" height="107.000000pt" viewBox="0 0 107.000000 107.000000"
 preserveAspectRatio="xMidYMid meet">
<metadata>
Created by potrace 1.14, written by Peter Selinger 2001-2017
</metadata>
<g transform="translate(0.000000,107.000000) scale(0.100000,-0.100000)"
fill="#000000" stroke="none">
<path d="M519 1048 c-1 -16 -2 -31 -3 -35 -2 -5 -6 -37 -10 -73 -7 -58 -11
-68 -36 -82 -32 -18 -43 -62 -39 -153 2 -69 1 -75 -16 -75 -22 0 -31 -29 -30
-100 1 -56 -2 -67 -21 -82 -16 -13 -22 -29 -22 -59 -1 -23 -2 -43 -4 -44 -3
-3 -43 -11 -70 -14 -4 -1 -23 -15 -43 -32 -34 -30 -35 -34 -35 -99 0 -44 -5
-71 -13 -79 -9 -6 -13 -31 -13 -63 l1 -53 104 0 105 0 -3 66 c-2 50 2 69 14
79 27 23 40 -3 38 -78 l-2 -67 40 -2 c30 -2 38 1 32 10 -11 17 -12 139 -2 159
11 21 48 23 73 5 13 -9 18 -27 18 -67 1 -101 2 -98 -39 -102 -21 -2 45 -3 147
-3 102 0 190 4 196 7 15 10 11 97 -5 108 -9 5 -14 32 -15 80 -1 69 -3 74 -34
100 -18 15 -52 31 -75 36 -40 9 -41 10 -42 52 -1 32 -6 46 -23 58 -19 13 -22
24 -22 93 0 72 -2 79 -23 88 -22 10 -23 16 -22 90 2 92 -8 126 -39 141 -24 11
-29 26 -42 132 -8 66 -23 99 -25 58z m27 -347 c-2 -24 -8 -37 -19 -39 -14 -3
-17 5 -17 46 0 27 3 52 7 56 14 13 32 -27 29 -63z m-56 3 c0 -30 -4 -44 -13
-44 -14 0 -23 73 -11 91 12 20 24 -4 24 -47z m106 5 c-1 -59 -26 -65 -26 -6 0
24 3 47 6 50 14 13 21 -4 20 -44z m-129 -159 c1 -66 -13 -82 -18 -22 -5 45 0
82 10 82 4 0 7 -27 8 -60z m78 -4 c0 -45 -3 -56 -15 -54 -11 2 -15 17 -16 53
-1 56 3 68 19 62 7 -2 12 -26 12 -61z m65 4 c0 -33 -4 -60 -10 -60 -6 0 -10
27 -10 60 0 33 4 60 10 60 6 0 10 -27 10 -60z m-180 -155 c0 -8 0 -18 1 -22 0
-4 -4 -9 -10 -11 -6 -2 -11 8 -11 22 0 14 5 26 10 26 6 0 10 -7 10 -15z m170
-16 c0 -10 -4 -19 -10 -19 -5 0 -10 12 -10 26 0 14 4 23 10 19 6 -3 10 -15 10
-26z m53 -11 c-2 -5 -8 -8 -14 -8 -11 0 -12 33 -2 44 8 8 23 -25 16 -36z
m-163 12 c0 -11 -7 -20 -15 -20 -8 0 -15 9 -15 20 0 11 7 20 15 20 8 0 15 -9
15 -20z m58 3 c-5 -25 -28 -28 -28 -4 0 12 6 21 16 21 9 0 14 -7 12 -17z
m-282 -209 c-5 -13 -10 -14 -18 -6 -6 6 -8 18 -4 28 5 13 10 14 18 6 6 -6 8
-18 4 -28z m64 5 c0 -12 -5 -19 -11 -17 -6 2 -10 7 -10 11 1 4 1 14 1 23 0 8
5 12 10 9 6 -3 10 -15 10 -26z m422 19 c6 -17 -1 -38 -13 -38 -5 0 -9 11 -9
25 0 26 14 34 22 13z m60 0 c6 -17 -1 -38 -13 -38 -5 0 -9 11 -9 25 0 26 14
34 22 13z m-120 -66 c2 -9 4 -39 3 -67 -1 -47 -3 -50 -28 -53 -27 -3 -27 -3
-27 60 0 35 5 69 11 75 15 15 36 7 41 -15z"/>
<path d="M395 10 c-3 -5 -1 -10 4 -10 6 0 11 5 11 10 0 6 -2 10 -4 10 -3 0 -8
-4 -11 -10z"/>
</g>
</svg>
