<svg width="26" height="26" viewBox="0 0 26 26" fill="none" xmlns="http://www.w3.org/2000/svg">
<path fill-rule="evenodd" clip-rule="evenodd" d="M11.5 2C6.25329 2 2 6.25329 2 11.5C2 16.7467 6.25329 21 11.5 21C14.1228 21 16.4974 19.9371 18.2165 18.2186C18.2167 18.2184 18.2169 18.2182 18.2171 18.2179C18.2179 18.2171 18.2188 18.2163 18.2196 18.2154C19.9375 16.4964 21 14.1223 21 11.5C21 6.25329 16.7467 2 11.5 2ZM20.3078 18.8945C21.988 16.8953 23 14.3158 23 11.5C23 5.14873 17.8513 0 11.5 0C5.14873 0 0 5.14873 0 11.5C0 17.8513 5.14873 23 11.5 23C14.3154 23 16.8945 21.9883 18.8935 20.3086L24.2922 25.7072C24.6827 26.0978 25.3158 26.0978 25.7064 25.7072C26.0969 25.3167 26.0969 24.6835 25.7064 24.293L20.3078 18.8945Z" fill="white"/>
</svg>
