<svg width="14" height="12" viewBox="0 0 14 12" fill="none" xmlns="http://www.w3.org/2000/svg">
<path fill-rule="evenodd" clip-rule="evenodd" d="M11.3553 5.99255C10.8703 6.5599 10.1907 7.27865 9.38749 7.92347C8.18419 8.88952 6.93222 9.5058 5.78333 9.49996L5.77888 9.49994H5.77443C3.8971 9.49993 2.33203 7.94661 2.33203 6C2.33203 4.05462 3.89653 2.50006 5.77768 2.50006H5.78205L5.78643 2.50004C6.96936 2.49412 8.22355 3.11243 9.411 4.06872C10.2071 4.70984 10.8769 5.42543 11.3553 5.99255ZM11.892 5.33035L11.891 5.33159C11.8914 5.33118 11.8917 5.33077 11.892 5.33035ZM13.2808 6.39506C13.3679 6.28145 13.4152 6.14185 13.4154 5.99814C13.4155 5.85444 13.3684 5.71476 13.2815 5.601C12.3508 4.36596 9.31916 0.732346 5.77768 0.750065C2.91293 0.750064 0.582031 3.10532 0.582031 6C0.582031 8.89534 2.91293 11.2499 5.77443 11.2499C9.25876 11.2677 12.3443 7.61895 13.2808 6.39506Z" fill="#3EAC17"/>
</svg>
