<svg width="24" height="50" viewBox="0 0 24 50" fill="none" xmlns="http://www.w3.org/2000/svg">
<path d="M6.39743 17.8606C6.39743 17.8606 8.20504 15.3212 7.03601 11.7945C5.8629 8.27006 3.13108 6.93143 3.13108 6.93143C3.13108 6.93143 1.08681 9.95779 2.22932 13.3933C3.36978 16.831 6.39743 17.8606 6.39743 17.8606Z" fill="#3EAC17"/>
<path d="M11.4141 19.6643C11.4141 19.6643 14.5744 19.3885 16.384 16.3088C18.1937 13.2313 16.8104 9.7891 16.8104 9.7891C16.8104 9.7891 13.8766 10.4384 12.018 13.5982C10.1615 16.7557 11.4141 19.6643 11.4141 19.6643Z" fill="#3EAC17"/>
<path d="M11.7343 23.7327C10.2715 27.1282 11.8608 29.8366 11.8608 29.8366C11.8608 29.8366 14.964 29.1117 16.388 25.8051C17.81 22.4941 16.0269 19.2788 16.0269 19.2788C16.0269 19.2788 13.1972 20.3372 11.7343 23.7327Z" fill="#3EAC17"/>
<path d="M18.877 26.4685C18.877 26.4685 16.1492 27.8161 14.9863 31.3427C13.8234 34.8761 15.6372 37.4066 15.6372 37.4066C15.6372 37.4066 18.6607 36.3682 19.7951 32.9282C20.9274 29.4882 18.877 26.4685 18.877 26.4685Z" fill="#3EAC17"/>
<path d="M21.15 45.0395C21.15 45.0395 23.7737 43.0939 23.9512 39.4449C24.1266 35.7937 21.3622 33.5478 21.3622 33.5478C21.3622 33.5478 19.1057 35.6936 18.9242 39.4382C18.7446 43.1806 21.15 45.0395 21.15 45.0395Z" fill="#3EAC17"/>
<path d="M10.4268 11.0648C10.4268 11.0648 13.2239 10.0464 14.044 6.40629C14.8662 2.7662 13.2769 0 13.2769 0C13.2769 0 10.0371 1.28081 9.23529 4.83196C8.43554 8.38088 10.4268 11.0648 10.4268 11.0648Z" fill="#3EAC17"/>
<path d="M6.39519 25.6009C6.39519 25.6009 7.43365 22.5923 5.36285 19.6015C3.28798 16.6085 0.317461 16.206 0.317461 16.206C0.317461 16.206 -0.816886 19.7549 1.2029 22.6723C3.22269 25.592 6.39519 25.6009 6.39519 25.6009Z" fill="#3EAC17"/>
<path d="M8.71302 33.5389C8.71302 33.5389 9.11086 30.3547 6.4831 27.9398C3.85125 25.5227 0.872571 25.8518 0.872571 25.8518C0.872571 25.8518 0.489015 29.5875 3.05149 31.9423C5.61805 34.2949 8.71302 33.5389 8.71302 33.5389Z" fill="#3EAC17"/>
<path d="M12.2426 40.1023C12.2426 40.1023 11.7427 36.9358 8.56413 35.5038C5.38347 34.0674 2.63737 35.3637 2.63737 35.3637C2.63737 35.3637 3.31064 39.0505 6.40765 40.4514C9.50465 41.8456 12.2426 40.1023 12.2426 40.1023Z" fill="#3EAC17"/>
<path d="M13.7846 42.829C10.4713 41.8194 7.88435 43.4627 7.88435 43.4627C7.88435 43.4627 8.95545 47.0339 12.183 48.0189C15.4147 49.004 17.9404 46.916 17.9404 46.916C17.9404 46.916 17.0978 43.8363 13.7846 42.829Z" fill="#3EAC17"/>
<path d="M10.7714 13.2344L9.29838 12.4451C9.22086 12.6207 1.64359 30.163 22.935 50L24 48.6414C3.72866 29.7516 10.4735 13.8993 10.7714 13.2344Z" fill="#3EAC17"/>
</svg>
